<svg xmlns="http://www.w3.org/2000/svg" viewBox="0 0 96 96" fill="none">
  <!-- Top-down The Twins: two offset mini-bots (+X forward) -->
  <defs>
    <linearGradient id="purple" x1="0" y1="0" x2="1" y2="0">
      <stop offset="0%" stop-color="#903070"/>
      <stop offset="100%" stop-color="#e060c0"/>
    </linearGradient>
  </defs>

  <ellipse cx="48" cy="86" rx="34" ry="5" fill="#000" opacity="0.38"/>

  <!-- twin 1 -->
  <path d="M32 26 L48 20 L64 26 L62 50 L34 50 Z" fill="#ffffff" stroke="#0a0a0e" stroke-width="1.3"/>
  <rect x="46" y="20" width="4" height="32" fill="#2a2a30"/>
  <path d="M36 24 L44 20 L50 24 Z" fill="url(#purple)" stroke="#0a0a0e"/>
  <path d="M50 24 L58 20 L62 26 Z" fill="url(#purple)" stroke="#0a0a0e"/>
  <rect x="38" y="32" width="9" height="7" rx="1.5" fill="#ffffff" stroke="#0a0a0e"/>
  <rect x="53" y="32" width="9" height="7" rx="1.5" fill="#ffffff" stroke="#0a0a0e"/>
  <rect x="39" y="36" width="7" height="3" rx="1" fill="#0a0a0e"/>
  <rect x="54" y="36" width="7" height="3" rx="1" fill="#0a0a0e"/>
  <path d="M38 50 L36 58 L42 58 Z" fill="#2a2a30" stroke="#0a0a0e"/>
  <path d="M58 50 L60 58 L54 58 Z" fill="#2a2a30" stroke="#0a0a0e"/>
  <rect x="32" y="42" width="30" height="9" rx="2" fill="#1a1a22" stroke="#0a0a0e"/>

  <!-- twin 2 -->
  <path d="M28 56 L48 50 L68 56 L64 76 L32 76 Z" fill="#ffffff" stroke="#0a0a0e" stroke-width="1.3"/>
  <rect x="46" y="50" width="4" height="28" fill="#2a2a30"/>
  <path d="M32 56 L40 52 L48 56 Z" fill="url(#purple)" stroke="#0a0a0e"/>
  <path d="M48 56 L56 52 L64 56 Z" fill="url(#purple)" stroke="#0a0a0e"/>
  <rect x="34" y="62" width="9" height="7" rx="1.5" fill="#ffffff" stroke="#0a0a0e"/>
  <rect x="53" y="62" width="9" height="7" rx="1.5" fill="#ffffff" stroke="#0a0a0e"/>
  <rect x="35" y="66" width="7" height="3" rx="1" fill="#0a0a0e"/>
  <rect x="54" y="66" width="7" height="3" rx="1" fill="#0a0a0e"/>
  <path d="M34 76 L32 84 L40 84 Z" fill="#2a2a30" stroke="#0a0a0e"/>
  <path d="M62 76 L64 84 L56 84 Z" fill="#2a2a30" stroke="#0a0a0e"/>
  <rect x="28" y="68" width="36" height="9" rx="2" fill="#1a1a22" stroke="#0a0a0e"/>

  <!-- forward prongs -->
  <path d="M62 34 L74 30 L72 38 L64 40 Z" fill="#2a2a30" stroke="#0a0a0e"/>
  <path d="M64 64 L76 68 L74 60 L66 58 Z" fill="#2a2a30" stroke="#0a0a0e"/>
</svg>
